<?xml version="1.0"?>
<svg width="44.99999999999999" height="44.99999999999999" xmlns="http://www.w3.org/2000/svg" xmlns:svg="http://www.w3.org/2000/svg">
 <title/>
 <g class="layer">
  <title>background</title>
  <rect fill="none" height="402" id="canvas_background" width="582" x="-1" y="-1"/>
 </g>
 <g class="layer">
  <title>Layer 1</title>
  <path d="m35.440093,44.839541c-0.155253,0 -0.310506,0 -0.473522,0a5.115589,5.1711 0 0 1 -3.027435,-1.569378l-8.026584,-8.105836a0.776265,0.784689 0 0 1 -0.23288,-0.549282a0.776265,0.784689 0 0 1 0.23288,-0.557129l6.411952,-6.48153a23.086133,23.336647 0 0 0 -1.653445,-5.987176l-5.239792,-5.29665a22.558273,22.803058 0 0 0 -5.922905,-1.687081l-6.411952,6.48153a0.776265,0.784689 0 0 1 -1.102297,0l-8.011059,-8.097989c-1.800936,-1.828325 -2.049341,-4.551195 -0.543386,-6.065645l2.980859,-3.036746a11.123883,11.244591 0 0 1 1.63792,-1.365359c5.565823,-3.7822 13.83305,-2.24421 19.65504,3.648803l12.971395,13.143538c5.829753,5.893013 7.343471,14.24995 3.609634,19.868322a11.643981,11.770333 0 0 1 -1.350702,1.655693l-3.004147,3.036746a3.485432,3.523253 0 0 1 -2.499575,0.965167l0.000001,0.000002zm-9.881859,-10.200955l7.475436,7.533013a3.586346,3.625263 0 0 0 2.103679,1.075024a2.01829,2.040191 0 0 0 1.700021,-0.525742l3.004147,-3.005358a10.355381,10.467749 0 0 0 1.164398,-1.420287c3.268077,-4.919999 1.800936,-12.60995 -3.42333,-17.890906l-12.963632,-13.104304c-5.224266,-5.29665 -12.823905,-6.818946 -17.691089,-3.476172a9.423862,9.526123 0 0 0 -1.40504,1.169186l-3.004147,3.036746c-0.900468,0.910239 -0.652063,2.636555 0.551148,3.844975l7.452148,7.564401l5.666738,-5.736076a0.698639,0.70622 0 0 1 0.069864,-0.2511a0.776265,0.784689 0 0 1 0.776265,-0.45512a23.435453,23.689757 0 0 1 7.126117,1.906794a0.776265,0.784689 0 0 1 0.240642,0.172632l5.433858,5.492822a0.776265,0.784689 0 0 1 0.163016,0.2511a23.637282,23.893776 0 0 1 1.894088,7.203444a0.776265,0.784689 0 0 1 -0.450234,0.784689a0.776265,0.784689 0 0 1 -0.256168,0.070622l-5.627924,5.759616l-0.000001,0.000001z" fill="#000000" fill-opacity="0" id="svg_1" stroke="#000000"/>
 </g>
</svg>