<?xml version="1.0"?>
<svg width="45" height="45" xmlns="http://www.w3.org/2000/svg" xmlns:svg="http://www.w3.org/2000/svg">
 <g class="layer">
  <title>Layer 1</title>
  <g id="layer1">
   <path d="m16.841542,0.506443c-7.020918,0 -14.041836,5.125738 -14.041836,13.668581l0,6.834372l39.785204,0l0,-6.834372c-0.000047,-8.542843 -7.020918,-13.668581 -14.041837,-13.668581l-11.70153,0l-0.000001,0zm1.170153,3.417104c0.648265,0 1.170153,0.762054 1.170153,1.708634c0,0.946498 -0.521888,1.708552 -1.170153,1.708552c-0.648264,0 -1.170153,-0.762054 -1.170153,-1.708552c0,-0.94658 0.521888,-1.708634 1.170153,-1.708634zm9.361224,0c0.648265,0 1.170153,0.762054 1.170153,1.708634c0,0.946498 -0.521888,1.708552 -1.170153,1.708552c-0.648265,0 -1.170153,-0.762054 -1.170153,-1.708552c0,-0.94658 0.521888,-1.708634 1.170153,-1.708634zm-14.041836,6.834372c0.648265,0 1.170153,0.761972 1.170153,1.708552c0,0.94658 -0.521888,1.708552 -1.170153,1.708552c-0.648265,0 -1.170153,-0.761972 -1.170153,-1.708552c0,-0.94658 0.521888,-1.708552 1.170153,-1.708552zm9.361224,0c0.648264,0 1.170153,0.761972 1.170153,1.708552c0,0.94658 -0.521888,1.708552 -1.170153,1.708552c-0.648265,0 -1.170153,-0.761972 -1.170153,-1.708552c0,-0.94658 0.521888,-1.708552 1.170153,-1.708552zm9.361224,0c0.648265,0 1.170153,0.761972 1.170153,1.708552c0,0.94658 -0.521888,1.708552 -1.170153,1.708552c-0.648264,0 -1.170153,-0.761972 -1.170153,-1.708552c0,-0.94658 0.521888,-1.708552 1.170153,-1.708552zm-29.253826,13.668581c-1.170223,0 -2.340329,1.708552 -2.340306,3.417186c0.000024,1.708552 1.170083,3.417104 2.340306,3.417104l39.785204,0c1.170176,0 2.340283,-1.708552 2.340306,-3.417104c0.000047,-1.708634 -1.170129,-3.417186 -2.340306,-3.417186l-39.785204,0zm0,10.251477l0,3.417186c0,3.417186 2.340306,6.83429 4.680612,6.83429l30.423979,0c2.340306,0 4.680613,-3.417104 4.680613,-6.83429l0,-3.417186l-39.785204,0z" fill="#000000" id="rect13326-2-5-2-3" stroke-width="2"/>
  </g>
 </g>
</svg>